<?xml version="1.0" encoding="utf-8"?>
<!-- Generator: Adobe Illustrator 18.0.0, SVG Export Plug-In . SVG Version: 6.00 Build 0)  -->
<!DOCTYPE svg PUBLIC "-//W3C//DTD SVG 1.1//EN" "http://www.w3.org/Graphics/SVG/1.1/DTD/svg11.dtd">
<svg version="1.1" id="Layer_1" xmlns="http://www.w3.org/2000/svg" xmlns:xlink="http://www.w3.org/1999/xlink" x="0px" y="0px"
	 viewBox="0 0 175.8 16" enable-background="new 0 0 175.8 16" xml:space="preserve">
<g>
	<path fill="#FFFFFF" d="M12.5,12.8h-0.4L9,5.1l-3.1,7.8H5.5l-4-10h1.1l3,7.6l3.1-7.6h0.4l3.1,7.6l3.1-7.6h1.1L12.5,12.8z"/>
	<path fill="#FFFFFF" d="M20.3,12.7V2.8h1.1v9.9H20.3z"/>
	<path fill="#FFFFFF" d="M30.2,12.1c-0.6,0.5-1.2,0.8-2,0.8c-0.6,0-1.1-0.1-1.6-0.3c-0.2-0.1-0.4-0.2-0.6-0.3s-0.3-0.2-0.5-0.3v-1.3
		c0.4,0.3,0.7,0.5,0.9,0.6c0.2,0.1,0.4,0.3,0.6,0.3c0.4,0.2,0.7,0.2,1,0.2c0.5,0,1-0.2,1.3-0.5c0.4-0.3,0.5-0.7,0.5-1.2
		c0-0.5-0.2-0.9-0.5-1.2c-0.4-0.3-0.9-0.6-1.7-0.8C27.3,8,27,7.8,26.7,7.6c-0.3-0.2-0.5-0.4-0.7-0.5c-0.4-0.4-0.6-1-0.6-1.7
		c0-0.7,0.3-1.4,0.9-1.9c0.6-0.5,1.3-0.8,2-0.8c0.6,0,1.1,0.1,1.5,0.3c0.4,0.2,0.7,0.3,0.9,0.4l0,1.2c-0.2-0.1-0.5-0.3-0.6-0.3
		c-0.2-0.1-0.4-0.2-0.5-0.3c-0.4-0.2-0.7-0.3-1.2-0.3c-0.3,0-0.5,0-0.7,0.1c-0.2,0.1-0.4,0.2-0.6,0.4c-0.4,0.3-0.5,0.7-0.5,1.1
		c0,0.5,0.1,0.8,0.4,1c0.3,0.3,0.8,0.5,1.5,0.8c0.5,0.2,0.9,0.4,1.2,0.6c0.3,0.2,0.6,0.4,0.8,0.6c0.4,0.4,0.6,1,0.6,1.8
		C31,10.9,30.7,11.5,30.2,12.1z"/>
	<path fill="#FFFFFF" d="M42.5,11.4c-0.9,0.9-2.2,1.4-3.8,1.4H35V2.8h3.6c1.6,0,2.9,0.4,3.9,1.3c1,0.9,1.4,2.1,1.4,3.6
		C43.9,9.3,43.5,10.4,42.5,11.4z M41.6,4.9c-0.8-0.7-1.8-1.1-3.1-1.1h-2.4v8h2.4c1.3,0,2.3-0.4,3.1-1.1c0.8-0.7,1.2-1.7,1.2-2.9
		C42.8,6.6,42.4,5.6,41.6,4.9z"/>
	<path fill="#FFFFFF" d="M57.4,11.4c-1,1-2.2,1.5-3.7,1.5s-2.7-0.5-3.7-1.5c-0.5-0.5-0.9-1-1.1-1.6c-0.3-0.6-0.4-1.3-0.4-2
		c0-1.4,0.5-2.7,1.5-3.6c1-1,2.2-1.5,3.7-1.5c1.5,0,2.7,0.5,3.7,1.5c1,1,1.5,2.2,1.5,3.6S58.4,10.4,57.4,11.4z M56.5,4.9
		c-0.8-0.8-1.7-1.2-2.9-1.2c-1.1,0-2.1,0.4-2.9,1.2c-0.8,0.8-1.2,1.7-1.2,2.9c0,1.1,0.4,2.1,1.2,2.9c0.8,0.8,1.8,1.2,2.9,1.2
		s2.1-0.4,2.9-1.2c0.8-0.8,1.2-1.8,1.2-2.9C57.7,6.7,57.3,5.7,56.5,4.9z"/>
	<path fill="#FFFFFF" d="M71.3,12.7V4.6l-3.5,4.3l-3.5-4.3v8.2h-1.1V2.8h1l3.6,4.3l3.5-4.3h1v9.9H71.3z"/>
	<path fill="#FFFFFF" d="M84.3,12.7V2.8h1.1v9.9H84.3z"/>
	<path fill="#FFFFFF" d="M94.1,12.1c-0.6,0.5-1.2,0.8-2,0.8c-0.6,0-1.1-0.1-1.6-0.3c-0.2-0.1-0.4-0.2-0.6-0.3
		c-0.2-0.1-0.3-0.2-0.5-0.3v-1.3c0.4,0.3,0.7,0.5,0.9,0.6c0.2,0.1,0.4,0.3,0.6,0.3c0.4,0.2,0.7,0.2,1,0.2c0.5,0,1-0.2,1.3-0.5
		c0.4-0.3,0.5-0.7,0.5-1.2c0-0.5-0.2-0.9-0.5-1.2c-0.4-0.3-0.9-0.6-1.7-0.8c-0.4-0.1-0.8-0.3-1-0.5c-0.3-0.2-0.5-0.4-0.7-0.5
		c-0.4-0.4-0.6-1-0.6-1.7c0-0.7,0.3-1.4,0.9-1.9c0.6-0.5,1.3-0.8,2-0.8c0.6,0,1.1,0.1,1.5,0.3c0.4,0.2,0.7,0.3,0.9,0.4l0,1.2
		c-0.2-0.1-0.5-0.3-0.6-0.3c-0.2-0.1-0.4-0.2-0.5-0.3c-0.4-0.2-0.7-0.3-1.2-0.3c-0.3,0-0.5,0-0.7,0.1c-0.2,0.1-0.4,0.2-0.6,0.4
		c-0.4,0.3-0.5,0.7-0.5,1.1c0,0.5,0.1,0.8,0.4,1c0.3,0.3,0.8,0.5,1.5,0.8c0.5,0.2,0.9,0.4,1.2,0.6c0.3,0.2,0.6,0.4,0.8,0.6
		c0.4,0.4,0.6,1,0.6,1.8C94.9,10.9,94.6,11.5,94.1,12.1z"/>
	<path fill="#FFFFFF" d="M116.3,12.8h-0.4l-3.1-7.8l-3.1,7.8h-0.4l-4-10h1.1l3,7.6l3.1-7.6h0.4l3.1,7.6l3.1-7.6h1.1L116.3,12.8z"/>
	<path fill="#FFFFFF" d="M124.1,12.7V2.8h5.6v1h-4.5v3.5h4.4v1h-4.4v3.5h4.6v1H124.1z"/>
	<path fill="#FFFFFF" d="M141.8,12.7l-1.5-3.3h-4.4l-1.5,3.3h-1.2l4.6-10h0.6l4.6,10H141.8z M138.1,4.6l-1.8,3.9h3.6L138.1,4.6z"/>
	<path fill="#FFFFFF" d="M146.6,12.7V2.8h1.1v8.9h4.7v1H146.6z"/>
	<path fill="#FFFFFF" d="M157.3,3.8v8.9h-1.1V3.8h-3.6v-1h8.3v1H157.3z"/>
	<path fill="#FFFFFF" d="M172.1,12.7V8.2h-6v4.5H165V2.8h1.1v4.4h6V2.8h1.1v9.9H172.1z"/>
</g>
</svg>
